# xmcd CD database file
#
# Track frame offsets:
#	150
#	25951
#	46400
#	66670
#	85370
#	109585
#	129495
#	147233
#	162765
#	184059
#	202535
#	240096
#	259595
#	287774
#	307128
#	324635
#
# Disc length: 4579 seconds
#
# Revision: 1
# Processed by: cddbd v1.5.2PL0 Copyright (c) Steve Scherf et al.
# Submitted via: CDex 1.51
#
DISCID=df11e110
DTITLE=Southside Johnny and The Asbury Jukes - Jukebox [CD4]
DYEAR=2007
DGENRE=Rock
TTITLE0=Better Days (Live)
TTITLE1=All I Needed Was You (Acoustic)
TTITLE2=This Time Baby's Gone For Good (Acoustic)
TTITLE3=Dark End Of The Street (Acoustic)
TTITLE4=All Night Long (Acoustic)
TTITLE5=Somebody To Love You
TTITLE6=Gladly Go Blind
TTITLE7=99 Degrees
TTITLE8=I Will Be Strong
TTITLE9=Christmas Is For Everyone
TTITLE10=Living With The Blues (Live)
TTITLE11=She's Still In Love (Live)
TTITLE12=Tired Skin (Live)
TTITLE13=Comin' Back (Live)
TTITLE14=Rebel Rebel (Live)
TTITLE15=Into The Harbour (Live)
EXTD=submitted by Francesco Magni YEAR: 2007
EXTT0=
EXTT1=
EXTT2=
EXTT3=
EXTT4=
EXTT5=
EXTT6=
EXTT7=
EXTT8=
EXTT9=
EXTT10=
EXTT11=
EXTT12=
EXTT13=
EXTT14=
EXTT15=
PLAYORDER=
